<svg width="38" height="36" viewBox="0 0 38 36" fill="none" xmlns="http://www.w3.org/2000/svg">
<path d="M13.2917 35.875L10.0417 30.3333L3.70833 29L4.41667 22.75L0.291667 18L4.41667 13.25L3.70833 7L10.0417 5.66666L13.2917 0.124999L19 2.70833L24.75 0.124999L28 5.66666L34.2917 7L33.5833 13.25L37.7083 18L33.5833 22.75L34.2917 29L28 30.3333L24.75 35.875L19 33.2917L13.2917 35.875ZM14.6667 31.75L19 29.9167L23.4583 31.75L26.0833 27.7083L30.7917 26.5L30.3333 21.6667L33.5833 18L30.3333 14.25L30.7917 9.41666L26.0833 8.29166L23.375 4.25L19 6.08333L14.5417 4.25L11.9167 8.33333L7.20833 9.41666L7.66667 14.25L4.41667 18L7.66667 21.6667L7.20833 26.5833L11.9167 27.6667L14.6667 31.75ZM17.2083 23.75L26.75 14.2917L24.625 12.25L17.2083 19.625L13.4167 15.6667L11.25 17.7917L17.2083 23.75Z" fill="#021071"/>
</svg>
